<?xml version="1.0" standalone="no"?>
<!DOCTYPE svg PUBLIC "-//W3C//DTD SVG 20010904//EN"
 "http://www.w3.org/TR/2001/REC-SVG-20010904/DTD/svg10.dtd">
<svg version="1.0" xmlns="http://www.w3.org/2000/svg"
 width="330.000000pt" height="330.000000pt" viewBox="0 0 330.000000 330.000000"
 preserveAspectRatio="xMidYMid meet">
<metadata>
Created by potrace 1.11, written by Peter Selinger 2001-2013
</metadata>
<g transform="translate(0.000000,330.000000) scale(0.100000,-0.100000)"
fill="#000000" stroke="none">
<path d="M1327 2423 c-1 -1 -51 -4 -112 -8 -60 -4 -126 -9 -145 -10 -19 -2
-47 -3 -62 -4 -28 -1 -24 6 -111 -183 -12 -26 -23 -45 -26 -42 -3 2 -21 48
-41 102 -29 78 -39 97 -54 95 -11 -1 -49 -5 -85 -8 -113 -13 -116 -12 -119 13
-3 20 -8 22 -40 17 -94 -15 -159 -25 -182 -30 -14 -3 -61 -12 -105 -20 -44 -8
-91 -17 -105 -20 -14 -3 -35 -7 -48 -9 -35 -5 -36 -6 -46 -81 -18 -140 -19
-156 -3 -173 9 -10 15 -27 13 -38 -13 -69 -27 -196 -23 -200 3 -3 1 -20 -4
-37 -6 -18 -12 -48 -15 -67 -13 -84 -12 -93 16 -120 26 -26 31 -27 81 -19 30
5 70 11 89 14 89 11 276 41 317 50 15 3 23 14 25 33 l4 27 14 -29 c14 -27 16
-28 74 -22 32 3 57 4 55 1 -5 -5 -32 -10 -159 -30 -52 -9 -107 -18 -121 -20
-42 -7 -271 -46 -304 -51 -61 -9 -85 -16 -85 -23 0 -4 12 -19 27 -33 28 -27
31 -28 198 -42 83 -8 167 -16 202 -21 19 -2 66 -7 106 -11 40 -4 79 -8 87 -10
8 -1 31 -3 50 -3 24 -1 31 -4 21 -10 -7 -5 -27 -7 -42 -4 -29 4 -33 -1 -30
-37 1 -10 -6 -6 -20 10 l-21 24 -242 1 -242 1 -1 -90 c-1 -78 2 -93 18 -104
15 -11 18 -26 18 -100 -1 -201 -4 -184 44 -210 34 -18 58 -22 129 -22 l87 0 3
62 3 62 110 1 c101 0 110 -2 110 -19 0 -10 20 -38 45 -62 l45 -44 177 0 c169
0 178 1 192 21 l14 21 14 -21 c12 -20 20 -21 194 -21 l181 0 -2 40 c-1 22 2
40 7 40 5 0 9 -10 8 -22 -5 -62 -18 -58 194 -58 l194 0 5 38 c3 20 6 67 6 104
0 73 -3 77 -62 74 -21 -1 -37 1 -37 5 0 8 99 149 105 149 2 0 2 -16 1 -35 -3
-25 0 -35 10 -35 17 0 16 3 19 -135 2 -60 3 -122 4 -137 l1 -28 162 0 c136 0
164 3 180 17 17 15 18 15 18 0 0 -15 19 -17 175 -17 155 0 175 2 184 18 9 16
10 16 16 -1 6 -15 25 -17 184 -17 l177 0 45 32 c24 18 47 37 51 43 4 5 8 110
7 232 l0 221 -200 -1 c-198 -2 -201 -2 -220 -26 l-19 -23 0 26 0 26 -100 -3
c-55 -2 -100 0 -100 5 0 4 15 8 33 9 17 0 41 2 52 3 11 2 54 6 95 10 41 4 89
9 105 11 17 2 65 7 108 10 44 4 89 8 100 11 12 2 56 7 97 10 67 4 78 8 107 36
18 18 31 33 29 35 -2 3 -21 6 -42 9 -22 2 -50 6 -64 9 -14 3 -41 7 -60 10 -19
3 -46 7 -60 10 -14 3 -38 8 -55 10 -16 3 -39 7 -51 9 -12 2 -45 7 -75 11 -30
4 -57 9 -60 10 -3 2 -28 7 -55 10 -27 4 -56 8 -64 10 -8 3 -33 7 -55 11 -50 7
-58 14 -17 14 17 0 34 5 37 10 4 6 12 4 21 -5 9 -8 25 -15 37 -15 12 -1 39 -3
61 -6 34 -5 41 -2 61 22 l23 29 -3 -28 c-4 -32 -3 -33 55 -41 25 -3 56 -8 70
-11 14 -2 45 -7 70 -10 25 -3 54 -7 65 -9 11 -2 48 -7 83 -11 69 -8 67 -9 120
59 23 30 24 59 5 171 -7 40 -10 69 -18 140 -3 33 -10 71 -15 85 -4 14 -8 39
-8 55 0 33 -10 120 -21 175 l-7 35 -184 37 c-195 40 -244 41 -255 7 -5 -15
-12 -18 -28 -13 -12 4 -33 8 -47 10 -13 1 -45 5 -70 9 -25 3 -63 8 -85 10 -22
3 -62 8 -90 12 -72 10 -89 10 -97 -1 -4 -6 -13 -5 -22 4 -18 14 -26 16 -169
25 -166 12 -194 13 -371 20 l-169 6 6 -21 c5 -21 5 -21 -15 -3 -17 16 -38 18
-155 18 -74 0 -135 -1 -136 -2z m-142 -451 c-3 -92 -7 -176 -9 -187 -2 -11 1
-28 6 -37 6 -13 5 -18 -7 -18 -13 0 -20 19 -16 43 1 8 14 309 15 354 0 12 4
19 9 16 4 -2 5 -80 2 -171z m478 116 c-1 -29 -2 -61 -2 -70 -1 -10 -7 -18 -15
-18 -10 0 -13 16 -11 68 3 79 2 72 18 72 8 0 11 -16 10 -52z m252 30 c9 -23
11 -238 3 -238 -4 0 -8 27 -8 61 0 34 -4 58 -9 54 -5 -3 -13 0 -17 7 -9 14
-14 108 -7 121 7 12 33 8 38 -5z m467 -210 c3 -27 3 -48 1 -48 -10 0 -23 57
-18 78 8 33 13 26 17 -30z m-747 15 c-2 -10 -4 -29 -4 -43 -1 -24 -3 -25 -84
-26 -64 -1 -90 -6 -119 -22 l-37 -21 3 37 c4 41 -2 39 129 42 59 2 70 5 85 26
20 28 32 31 27 7z m291 -98 c1 -25 -3 -45 -7 -45 -4 0 -7 20 -6 45 0 25 3 45
7 45 3 0 6 -20 6 -45z m239 -30 c30 -69 25 -96 -15 -75 -12 7 -18 16 -13 23 4
7 7 37 6 67 0 30 1 46 4 35 3 -11 11 -33 18 -50z m-1375 -21 c0 -8 9 -32 20
-54 11 -22 20 -42 20 -45 0 -3 -16 -5 -35 -5 -34 0 -34 1 -31 38 3 20 5 50 5
65 1 28 21 29 21 1z m1136 -34 c-2 -16 -1 -30 2 -31 4 0 25 -2 46 -5 22 -2 41
-6 43 -8 3 -2 -6 -18 -18 -36 -20 -27 -24 -29 -30 -13 -5 15 -19 18 -98 19
-90 1 -93 0 -117 -29 -33 -40 -37 -31 -11 25 l22 48 60 -1 c76 -2 85 -1 84 9
-4 23 2 52 12 52 6 0 8 -13 5 -30z m-973 -12 c6 -22 -6 -38 -30 -38 -8 0 -8 7
0 30 14 36 23 38 30 8z m627 -24 c0 -2 -7 -4 -15 -4 -8 0 -15 4 -15 10 0 5 7
7 15 4 8 -4 15 -8 15 -10z m-218 -34 l17 -35 -32 -27 c-18 -15 -34 -27 -37
-27 -3 0 -26 27 -52 59 l-48 59 38 3 c88 7 96 5 114 -32z m1178 -10 c0 -5 -2
-10 -4 -10 -3 0 -8 5 -11 10 -3 6 -1 10 4 10 6 0 11 -4 11 -10z m-996 -146 c9
-3 14 -10 11 -14 -6 -10 -45 -1 -45 11 0 10 12 11 34 3z m440 -64 c30 -46 28
-60 -8 -53 -22 4 -24 9 -19 34 4 21 1 30 -12 35 -13 5 -14 9 -3 15 7 5 14 9
14 9 1 0 13 -18 28 -40z m-664 -45 c0 -8 -53 -11 -78 -6 -2 1 7 19 19 41 l23
41 18 -33 c9 -18 17 -37 18 -43z m-550 1 c0 -3 -4 -8 -10 -11 -5 -3 -10 -1
-10 4 0 6 5 11 10 11 6 0 10 -2 10 -4z m1730 -2 c0 -8 -19 -13 -24 -6 -3 5 1
9 9 9 8 0 15 -2 15 -3z m-1619 -21 c6 -35 3 -295 -3 -299 -4 -3 -8 14 -8 38
-1 103 -8 196 -18 231 -9 33 -8 37 9 37 10 0 20 -3 20 -7z m1402 -39 c-9 -128
-6 -174 12 -174 11 0 15 -11 15 -43 l0 -42 -77 0 -78 1 -1 137 c0 76 3 140 8
143 5 3 24 8 41 11 18 3 34 6 35 8 2 2 14 0 25 -4 16 -6 21 -16 20 -37z m-750
-175 c12 -1 32 0 45 1 21 1 19 -4 -25 -73 -46 -70 -66 -81 -57 -30 4 21 1 23
-41 23 l-45 0 48 66 c43 61 47 64 50 40 2 -19 9 -26 25 -27z m-408 21 c4 -14
15 -20 35 -20 l29 0 -37 -59 c-20 -32 -39 -57 -41 -54 -3 2 -5 37 -6 78 -2 73
7 96 20 55z m382 -200 c1 -11 -2 -20 -5 -20 -4 0 -8 9 -9 20 -1 11 2 20 5 20
4 0 8 -9 9 -20z"/>
</g>
</svg>
