<?xml version="1.0" encoding="UTF-8"?>
<svg xmlns="http://www.w3.org/2000/svg" xmlns:xlink="http://www.w3.org/1999/xlink" width="32pt" height="32pt" viewBox="0 0 32 32" version="1.1">
<g id="surface17952379">
<path style=" stroke:none;fill-rule:nonzero;fill:rgb(100%,100%,100%);fill-opacity:1;" d="M 16 2.25 C 8.40625 2.25 2.25 8.40625 2.25 16 C 2.25 23.59375 8.40625 29.75 16 29.75 C 23.59375 29.75 29.75 23.59375 29.75 16 C 29.75 8.40625 23.59375 2.25 16 2.25 Z M 16 2.25 "/>
<path style=" stroke:none;fill-rule:nonzero;fill:rgb(99.215686%,95.294118%,47.058824%);fill-opacity:1;" d="M 16 2.25 C 8.398438 2.25 2.25 8.398438 2.25 16 C 2.25 23.601562 8.398438 29.75 16 29.75 C 23.601562 29.75 29.75 23.601562 29.75 16 C 29.75 8.398438 23.601562 2.25 16 2.25 Z M 16 26.300781 C 10.300781 26.300781 5.699219 21.675781 5.699219 16 C 5.699219 10.324219 10.300781 5.699219 16 5.699219 C 21.699219 5.699219 26.300781 10.324219 26.300781 16 C 26.300781 21.675781 21.699219 26.300781 16 26.300781 Z M 16 26.300781 "/>
<path style=" stroke:none;fill-rule:nonzero;fill:rgb(100%,100%,100%);fill-opacity:1;" d="M 16 14.851562 C 15.363281 14.851562 14.851562 15.363281 14.851562 16 C 14.851562 16.636719 15.363281 17.148438 16 17.148438 C 16.636719 17.148438 17.148438 16.636719 17.148438 16 C 17.148438 15.363281 16.636719 14.851562 16 14.851562 Z M 16 14.851562 "/>
<path style=" stroke:none;fill-rule:nonzero;fill:rgb(23.137255%,26.27451%,30.196078%);fill-opacity:1;" d="M 16 30.5 C 8 30.5 1.5 24 1.5 16 C 1.5 8 8 1.5 16 1.5 C 24 1.5 30.5 8 30.5 16 C 30.5 24 24 30.5 16 30.5 Z M 16 3 C 8.824219 3 3 8.824219 3 16 C 3 23.175781 8.824219 29 16 29 C 23.175781 29 29 23.175781 29 16 C 29 8.824219 23.175781 3 16 3 Z M 16 3 "/>
<path style=" stroke:none;fill-rule:nonzero;fill:rgb(23.137255%,26.27451%,30.196078%);fill-opacity:1;" d="M 16.023438 16.773438 C 15.824219 16.773438 15.648438 16.699219 15.5 16.550781 C 15.351562 16.398438 15.273438 16.226562 15.273438 16.023438 L 15.25 9.125 C 15.25 8.699219 15.574219 8.375 16 8.375 C 16.425781 8.375 16.75 8.699219 16.75 9.125 L 16.773438 15.273438 L 20.574219 15.25 C 20.976562 15.25 21.324219 15.574219 21.324219 16 C 21.324219 16.425781 21 16.75 20.574219 16.75 Z M 16.023438 16.773438 "/>
<path style=" stroke:none;fill-rule:nonzero;fill:rgb(23.137255%,26.27451%,30.196078%);fill-opacity:1;" d="M 16 17.898438 C 14.949219 17.898438 14.101562 17.050781 14.101562 16 C 14.101562 14.949219 14.949219 14.101562 16 14.101562 C 17.050781 14.101562 17.898438 14.949219 17.898438 16 C 17.898438 17.050781 17.050781 17.898438 16 17.898438 Z M 16 15.601562 C 15.773438 15.601562 15.601562 15.773438 15.601562 16 C 15.601562 16.226562 15.773438 16.398438 16 16.398438 C 16.226562 16.398438 16.398438 16.226562 16.398438 16 C 16.398438 15.773438 16.226562 15.601562 16 15.601562 Z M 16 15.601562 "/>
</g>
</svg>
