<?xml version="1.0" encoding="UTF-8"?>
<svg xmlns="http://www.w3.org/2000/svg" xmlns:xlink="http://www.w3.org/1999/xlink" width="100pt" height="100pt" viewBox="0 0 100 100" version="1.1">
<defs>
<linearGradient id="linear0" gradientUnits="userSpaceOnUse" x1="86" y1="26.01769" x2="86" y2="151.66637" gradientTransform="matrix(0.581395,0,0,0.581395,0,0)">
<stop offset="0" style="stop-color:rgb(10.196078%,42.745098%,100%);stop-opacity:1;"/>
<stop offset="1" style="stop-color:rgb(78.431373%,13.333333%,100%);stop-opacity:1;"/>
</linearGradient>
<linearGradient id="linear1" gradientUnits="userSpaceOnUse" x1="57.54475" y1="47.97456" x2="57.54475" y2="122.08238" gradientTransform="matrix(1.5625,0,0,1.5625,0,0)">
<stop offset="0" style="stop-color:rgb(54.117647%,70.588235%,100%);stop-opacity:1;"/>
<stop offset="1" style="stop-color:rgb(89.411765%,57.254902%,100%);stop-opacity:1;"/>
</linearGradient>
<linearGradient id="linear2" gradientUnits="userSpaceOnUse" x1="79.23556" y1="47.97456" x2="79.23556" y2="122.08238" gradientTransform="matrix(1.5625,0,0,1.5625,0,0)">
<stop offset="0" style="stop-color:rgb(54.117647%,70.588235%,100%);stop-opacity:1;"/>
<stop offset="1" style="stop-color:rgb(89.411765%,57.254902%,100%);stop-opacity:1;"/>
</linearGradient>
<linearGradient id="linear3" gradientUnits="userSpaceOnUse" x1="106.15625" y1="47.97456" x2="106.15625" y2="122.08238" gradientTransform="matrix(1.5625,0,0,1.5625,0,0)">
<stop offset="0" style="stop-color:rgb(54.117647%,70.588235%,100%);stop-opacity:1;"/>
<stop offset="1" style="stop-color:rgb(89.411765%,57.254902%,100%);stop-opacity:1;"/>
</linearGradient>
<linearGradient id="linear4" gradientUnits="userSpaceOnUse" x1="86" y1="47.97456" x2="86" y2="122.08238" gradientTransform="matrix(0.581395,0,0,0.581395,0,0)">
<stop offset="0" style="stop-color:rgb(54.117647%,70.588235%,100%);stop-opacity:1;"/>
<stop offset="1" style="stop-color:rgb(89.411765%,57.254902%,100%);stop-opacity:1;"/>
</linearGradient>
</defs>
<g id="surface17785049">
<path style=" stroke:none;fill-rule:nonzero;fill:url(#linear0);" d="M 79.6875 87.5 L 20.3125 87.5 C 16.003906 87.5 12.5 83.996094 12.5 79.6875 L 12.5 20.3125 C 12.5 16.003906 16.003906 12.5 20.3125 12.5 L 79.6875 12.5 C 83.996094 12.5 87.5 16.003906 87.5 20.3125 L 87.5 79.6875 C 87.5 83.996094 83.996094 87.5 79.6875 87.5 Z M 20.3125 15.625 C 17.726562 15.625 15.625 17.726562 15.625 20.3125 L 15.625 79.6875 C 15.625 82.273438 17.726562 84.375 20.3125 84.375 L 79.6875 84.375 C 82.273438 84.375 84.375 82.273438 84.375 79.6875 L 84.375 20.3125 C 84.375 17.726562 82.273438 15.625 79.6875 15.625 Z M 20.3125 15.625 "/>
<path style=" stroke:none;fill-rule:nonzero;fill:url(#linear1);" d="M 37.363281 32.03125 C 37.363281 34.1875 35.613281 35.9375 33.457031 35.9375 C 31.300781 35.9375 29.550781 34.1875 29.550781 32.03125 C 29.550781 29.875 31.300781 28.125 33.457031 28.125 C 35.613281 28.125 37.363281 29.875 37.363281 32.03125 Z M 37.363281 32.03125 "/>
<path style=" stroke:none;fill-rule:nonzero;fill:url(#linear2);" d="M 51.535156 32.078125 C 51.535156 35.097656 49.085938 37.546875 46.066406 37.546875 C 43.046875 37.546875 40.597656 35.097656 40.597656 32.078125 C 40.597656 29.054688 43.046875 26.609375 46.066406 26.609375 C 49.085938 26.609375 51.535156 29.054688 51.535156 32.078125 Z M 51.535156 32.078125 "/>
<path style=" stroke:none;fill-rule:nonzero;fill:url(#linear3);" d="M 68.75 33.59375 C 68.75 37.476562 65.601562 40.625 61.71875 40.625 C 57.835938 40.625 54.6875 37.476562 54.6875 33.59375 C 54.6875 29.710938 57.835938 26.5625 61.71875 26.5625 C 65.601562 26.5625 68.75 29.710938 68.75 33.59375 Z M 68.75 33.59375 "/>
<path style=" stroke:none;fill-rule:nonzero;fill:url(#linear4);" d="M 63.1875 44.023438 C 59.84375 43.617188 56.742188 44.632812 54.382812 46.53125 C 53.480469 43.171875 50.476562 40.6875 46.875 40.6875 C 44.164062 40.6875 41.78125 42.085938 40.378906 44.210938 C 39.601562 41.34375 36.871094 39.21875 33.59375 39.21875 C 29.710938 39.21875 26.5625 42.191406 26.5625 45.859375 L 26.5625 57.8125 L 39.0625 57.8125 L 39.0625 65.625 L 50 65.625 L 50 75 L 73.4375 75 L 73.4375 56.097656 C 73.4375 50.109375 69.132812 44.746094 63.1875 44.023438 Z M 63.1875 44.023438 "/>
</g>
</svg>
