<?xml version="1.0" encoding="UTF-8"?>
<svg xmlns="http://www.w3.org/2000/svg" xmlns:xlink="http://www.w3.org/1999/xlink" width="32pt" height="32pt" viewBox="0 0 32 32" version="1.1">
<g id="surface17023179">
<path style=" stroke:none;fill-rule:nonzero;fill:rgb(23.137255%,26.27451%,30.196078%);fill-opacity:1;" d="M 14.78125 1 C 14.089844 1 13.492188 1.464844 13.328125 2.136719 L 12.460938 5.582031 C 12.023438 5.730469 11.578125 5.917969 11.140625 6.136719 L 8.085938 4.304688 C 7.496094 3.949219 6.742188 4.042969 6.253906 4.53125 L 4.53125 6.253906 C 4.042969 6.742188 3.949219 7.496094 4.304688 8.085938 L 6.132812 11.140625 C 5.917969 11.574219 5.734375 12.019531 5.585938 12.460938 L 2.136719 13.324219 C 1.464844 13.492188 1 14.089844 1 14.78125 L 1 17.21875 C 1 17.910156 1.464844 18.507812 2.136719 18.671875 L 5.582031 19.539062 C 5.730469 19.980469 5.917969 20.425781 6.136719 20.859375 L 4.304688 23.910156 C 3.949219 24.503906 4.042969 25.253906 4.53125 25.742188 L 6.253906 27.46875 C 6.742188 27.957031 7.496094 28.046875 8.085938 27.695312 L 11.140625 25.863281 C 11.578125 26.082031 12.023438 26.265625 12.460938 26.414062 L 13.324219 29.863281 C 13.492188 30.53125 14.089844 31 14.78125 31 L 17.21875 31 C 17.910156 31 18.507812 30.53125 18.671875 29.863281 L 19.539062 26.417969 C 19.976562 26.265625 20.421875 26.082031 20.859375 25.859375 L 23.910156 27.695312 C 24.503906 28.046875 25.253906 27.953125 25.742188 27.46875 L 27.46875 25.742188 C 27.957031 25.257812 28.046875 24.503906 27.695312 23.910156 L 25.863281 20.859375 C 26.078125 20.425781 26.265625 19.980469 26.414062 19.535156 L 29.863281 18.671875 C 30.53125 18.507812 31 17.90625 31 17.21875 L 31 14.78125 C 31 14.089844 30.53125 13.492188 29.863281 13.324219 L 26.417969 12.460938 C 26.265625 12.019531 26.082031 11.574219 25.859375 11.140625 L 27.695312 8.085938 C 28.046875 7.496094 27.957031 6.742188 27.46875 6.253906 L 25.742188 4.53125 C 25.253906 4.042969 24.503906 3.949219 23.910156 4.304688 L 20.859375 6.132812 C 20.421875 5.917969 19.976562 5.730469 19.535156 5.585938 L 18.671875 2.136719 C 18.507812 1.464844 17.90625 1 17.21875 1 Z M 14.78125 2 L 17.21875 2 C 17.449219 2 17.648438 2.15625 17.703125 2.378906 L 18.566406 5.828125 C 18.648438 6.152344 18.890625 6.417969 19.21875 6.527344 C 19.613281 6.664062 20.015625 6.835938 20.414062 7.03125 C 20.722656 7.1875 21.082031 7.167969 21.375 6.996094 L 24.429688 5.164062 C 24.625 5.046875 24.875 5.078125 25.039062 5.238281 L 26.761719 6.960938 C 26.925781 7.125 26.957031 7.378906 26.835938 7.574219 L 25.007812 10.625 C 24.832031 10.917969 24.816406 11.277344 24.96875 11.585938 C 25.167969 11.980469 25.335938 12.382812 25.472656 12.785156 C 25.582031 13.109375 25.847656 13.351562 26.171875 13.433594 L 29.621094 14.296875 C 29.84375 14.351562 30 14.550781 30 14.78125 L 30 17.21875 C 30 17.449219 29.84375 17.648438 29.621094 17.703125 L 26.171875 18.566406 C 25.847656 18.648438 25.582031 18.890625 25.472656 19.21875 C 25.335938 19.617188 25.167969 20.019531 24.96875 20.414062 C 24.816406 20.722656 24.832031 21.082031 25.007812 21.375 L 26.839844 24.429688 C 26.957031 24.625 26.925781 24.875 26.765625 25.039062 L 25.039062 26.761719 C 24.875 26.925781 24.625 26.957031 24.429688 26.835938 L 21.375 25.007812 C 21.082031 24.832031 20.722656 24.816406 20.414062 24.96875 C 20.019531 25.167969 19.617188 25.335938 19.21875 25.472656 C 18.894531 25.582031 18.648438 25.847656 18.570312 26.171875 L 17.707031 29.621094 C 17.648438 29.84375 17.449219 30 17.21875 30 L 14.78125 30 C 14.550781 30 14.351562 29.84375 14.296875 29.621094 L 13.433594 26.171875 C 13.351562 25.847656 13.109375 25.582031 12.785156 25.472656 C 12.386719 25.335938 11.984375 25.167969 11.585938 24.96875 C 11.445312 24.898438 11.289062 24.863281 11.136719 24.863281 C 10.960938 24.863281 10.785156 24.910156 10.628906 25.007812 L 7.574219 26.835938 C 7.378906 26.957031 7.125 26.925781 6.964844 26.761719 L 5.238281 25.039062 C 5.078125 24.875 5.046875 24.625 5.164062 24.429688 L 6.996094 21.375 C 7.171875 21.082031 7.183594 20.722656 7.03125 20.414062 C 6.835938 20.019531 6.664062 19.617188 6.527344 19.21875 C 6.417969 18.894531 6.15625 18.648438 5.828125 18.570312 L 2.378906 17.707031 C 2.15625 17.648438 2 17.449219 2 17.21875 L 2 14.78125 C 2 14.550781 2.15625 14.351562 2.378906 14.296875 L 5.828125 13.433594 C 6.152344 13.351562 6.417969 13.109375 6.527344 12.785156 C 6.664062 12.382812 6.835938 11.980469 7.03125 11.585938 C 7.183594 11.277344 7.167969 10.917969 6.996094 10.625 L 5.164062 7.574219 C 5.046875 7.378906 5.078125 7.125 5.234375 6.960938 L 6.960938 5.238281 C 7.125 5.078125 7.375 5.046875 7.574219 5.164062 L 10.625 6.996094 C 10.917969 7.171875 11.277344 7.183594 11.585938 7.03125 C 11.984375 6.835938 12.386719 6.664062 12.785156 6.53125 C 13.109375 6.417969 13.351562 6.15625 13.433594 5.828125 L 14.296875 2.378906 C 14.351562 2.15625 14.550781 2 14.78125 2 Z M 16.9375 9.0625 C 16.667969 9.027344 16.414062 9.21875 16.375 9.492188 C 16.339844 9.765625 16.53125 10.015625 16.804688 10.054688 C 17.164062 10.101562 17.519531 10.183594 17.863281 10.296875 C 17.914062 10.3125 17.964844 10.320312 18.015625 10.320312 C 18.226562 10.320312 18.425781 10.183594 18.492188 9.976562 C 18.578125 9.710938 18.433594 9.429688 18.171875 9.34375 C 17.769531 9.214844 17.355469 9.117188 16.9375 9.0625 Z M 14.523438 9.195312 C 14.457031 9.183594 14.390625 9.1875 14.324219 9.203125 C 11.1875 9.972656 9 12.765625 9 16 C 9 18.597656 10.425781 20.972656 12.726562 22.1875 C 12.796875 22.226562 12.882812 22.246094 12.960938 22.246094 C 13.140625 22.246094 13.3125 22.148438 13.402344 21.980469 C 13.53125 21.734375 13.4375 21.433594 13.195312 21.304688 C 11.226562 20.257812 10 18.226562 10 16 C 10 13.230469 11.875 10.832031 14.5625 10.171875 C 14.832031 10.105469 14.996094 9.835938 14.929688 9.566406 C 14.878906 9.367188 14.714844 9.222656 14.523438 9.195312 Z M 20.59375 10.90625 C 20.46875 10.90625 20.339844 10.953125 20.242188 11.050781 L 19.535156 11.757812 C 19.339844 11.953125 19.339844 12.269531 19.535156 12.464844 C 19.632812 12.5625 19.757812 12.609375 19.886719 12.609375 C 20.015625 12.609375 20.144531 12.5625 20.242188 12.464844 L 20.949219 11.757812 C 21.144531 11.5625 21.144531 11.246094 20.949219 11.050781 C 20.851562 10.953125 20.722656 10.90625 20.59375 10.90625 Z M 16 12 C 13.796875 12 12 13.796875 12 16 C 12 18.203125 13.796875 20 16 20 C 18.203125 20 20 18.203125 20 16 C 20 13.796875 18.203125 12 16 12 Z M 21.984375 12.960938 C 21.917969 12.960938 21.851562 12.972656 21.789062 13 L 20.867188 13.390625 C 20.613281 13.496094 20.492188 13.792969 20.601562 14.046875 C 20.683594 14.238281 20.867188 14.351562 21.0625 14.351562 C 21.128906 14.351562 21.195312 14.335938 21.257812 14.3125 L 22.179688 13.921875 C 22.433594 13.8125 22.550781 13.519531 22.445312 13.265625 C 22.363281 13.074219 22.179688 12.960938 21.984375 12.960938 Z M 16 13 C 17.65625 13 19 14.34375 19 16 C 19 17.65625 17.65625 19 16 19 C 14.34375 19 13 17.65625 13 16 C 13 14.34375 14.34375 13 16 13 Z M 16 15 C 15.445312 15 15 15.445312 15 16 C 15 16.554688 15.445312 17 16 17 C 16.554688 17 17 16.554688 17 16 C 17 15.445312 16.554688 15 16 15 Z M 21.5 15.5 C 21.226562 15.5 21 15.722656 21 16 C 21 16.277344 21.226562 16.5 21.5 16.5 L 22.5 16.5 C 22.773438 16.5 23 16.277344 23 16 C 23 15.722656 22.773438 15.5 22.5 15.5 Z M 21.09375 17.5625 C 20.898438 17.5625 20.714844 17.683594 20.636719 17.875 C 20.535156 18.128906 20.65625 18.421875 20.914062 18.523438 L 21.839844 18.898438 C 21.902344 18.925781 21.964844 18.9375 22.023438 18.9375 C 22.222656 18.9375 22.410156 18.816406 22.492188 18.625 C 22.59375 18.367188 22.472656 18.074219 22.214844 17.972656 L 21.289062 17.597656 C 21.222656 17.570312 21.15625 17.558594 21.09375 17.5625 Z M 19.886719 19.386719 C 19.761719 19.386719 19.632812 19.4375 19.535156 19.535156 C 19.339844 19.730469 19.339844 20.046875 19.535156 20.242188 L 20.242188 20.949219 C 20.339844 21.046875 20.464844 21.09375 20.59375 21.09375 C 20.722656 21.09375 20.851562 21.046875 20.949219 20.949219 C 21.144531 20.753906 21.144531 20.4375 20.949219 20.242188 L 20.242188 19.535156 C 20.144531 19.4375 20.015625 19.386719 19.886719 19.386719 Z M 18.148438 20.5625 C 18.085938 20.5625 18.015625 20.578125 17.953125 20.601562 C 17.699219 20.710938 17.582031 21.003906 17.6875 21.257812 L 18.078125 22.179688 C 18.160156 22.367188 18.347656 22.484375 18.539062 22.484375 C 18.605469 22.484375 18.671875 22.472656 18.734375 22.445312 C 18.992188 22.335938 19.109375 22.042969 19 21.789062 L 18.609375 20.867188 C 18.527344 20.675781 18.34375 20.5625 18.148438 20.5625 Z M 16 21 C 15.726562 21 15.5 21.222656 15.5 21.5 L 15.5 22.5 C 15.5 22.777344 15.726562 23 16 23 C 16.273438 23 16.5 22.777344 16.5 22.5 L 16.5 21.5 C 16.5 21.222656 16.273438 21 16 21 Z M 16 21 "/>
</g>
</svg>
